<svg width="72" height="72" viewBox="0 0 72 72" fill="none" xmlns="http://www.w3.org/2000/svg">
<path d="M35.9999 36L70.3241 1.67586C69.7969 1.14742 69.1705 0.717158 68.4809 0.431481C67.7914 0.145803 67.0521 -0.000828461 66.3057 8.22395e-06H5.67426C4.92759 -0.00126435 4.18804 0.145163 3.49819 0.430861C2.80834 0.716559 2.20292 1.14705 1.67578 1.67586L35.9999 36Z" fill="#212A2F"/>
<path d="M70.3242 70.3242C70.8525 69.7967 71.2828 69.1813 71.5684 68.4915C71.8541 67.8017 72.0008 67.0624 72 66.3158V5.68431C72.0008 4.93772 71.8541 4.19833 71.5684 3.50855C71.2828 2.81878 70.8525 2.20337 70.3242 1.6759L36 36L70.3242 70.3242Z" fill="#1E282D"/>
<path d="M1.67586 1.6759C1.14716 2.20312 0.71674 2.81848 0.43105 3.50832C0.14536 4.19815 -0.00112979 4.93766 6.56081e-06 5.68431V66.3158C6.56081e-06 67.8233 0.598884 69.2691 1.66489 70.3352C2.7309 71.4012 4.17672 72 5.68428 72H66.3157C67.0623 72.0008 67.8017 71.8541 68.4915 71.5684C69.1813 71.2828 69.7967 70.8526 70.3241 70.3242L36 36L1.67586 1.6759Z" fill="#1C252B"/>
<path d="M37.0003 35.1235V35.0801C37.0003 34.9326 37.0003 34.7876 36.9917 34.6451C36.9917 34.6054 36.9917 34.5682 36.9917 34.5298C36.9917 34.4232 36.9844 34.3191 36.9807 34.215C36.9807 34.1741 36.9807 34.1332 36.9807 34.0911C36.9807 33.9671 36.9708 33.8531 36.9647 33.7366C36.9647 33.7205 36.9647 33.7044 36.9647 33.6882C36.9573 33.5569 36.9487 33.4292 36.9401 33.3028C36.9401 33.2681 36.9401 33.2359 36.9327 33.2024C36.9253 33.107 36.9179 33.014 36.9106 32.921C36.9106 32.8851 36.9044 32.8492 36.9007 32.8145C36.8909 32.7004 36.8798 32.5876 36.8675 32.4773V32.4414C36.8552 32.3336 36.8429 32.2282 36.8294 32.1253C36.8294 32.1092 36.8294 32.0919 36.8232 32.0758C36.8085 31.9704 36.7937 31.8663 36.779 31.7647C36.779 31.7436 36.7716 31.7225 36.7691 31.7015C36.7531 31.5998 36.7359 31.4994 36.7187 31.4015C36.7187 31.3916 36.7187 31.3829 36.7187 31.373C36.7015 31.2813 36.6842 31.1921 36.6658 31.1041C36.6658 31.088 36.6597 31.0706 36.656 31.0545C36.6363 30.964 36.6166 30.876 36.5957 30.7905C36.5957 30.7731 36.5871 30.7546 36.5834 30.7372C36.5613 30.6504 36.5391 30.5649 36.517 30.4819C36.517 30.4819 36.517 30.4732 36.517 30.4682C36.4948 30.3889 36.4715 30.3121 36.4481 30.2365C36.4481 30.2216 36.4395 30.2067 36.4346 30.1931C36.41 30.1175 36.3854 30.0444 36.3595 29.9737C36.3535 29.96 36.3481 29.9459 36.3436 29.9316C36.3165 29.8597 36.2882 29.789 36.2599 29.7209C36.2119 29.6081 36.1615 29.499 36.1099 29.39L36.0582 29.2871C36.0225 29.214 35.9856 29.1421 35.9487 29.0702L35.8848 28.9462C35.8491 28.8806 35.8122 28.8223 35.7753 28.7529C35.7532 28.7132 35.7298 28.6748 35.7064 28.6352C35.6683 28.5719 35.6289 28.5112 35.5834 28.448L35.517 28.3451C35.4445 28.2361 35.3707 28.1295 35.2944 28.0254L35.2538 27.9721C35.1886 27.8841 35.121 27.7986 35.0533 27.7143L34.9832 27.6312C34.9082 27.5408 34.8307 27.4528 34.752 27.3672L34.7274 27.34C34.6413 27.247 34.5515 27.1565 34.4593 27.0673L34.3855 26.9979C34.3104 26.9272 34.2354 26.8591 34.1579 26.7921C34.1358 26.7723 34.1136 26.7525 34.0903 26.7339C33.9931 26.6521 33.8947 26.5728 33.7938 26.4947L33.7287 26.4476C33.645 26.3856 33.5602 26.3236 33.4728 26.2654L33.3843 26.2059C33.2773 26.134 33.1678 26.0646 33.0546 25.9989C31.6279 25.1545 29.8834 24.7327 27.8212 24.7335C26.2293 24.727 24.6597 25.1098 23.247 25.849C23.1166 25.9184 22.9862 25.9902 22.8571 26.0646L22.8214 26.0857C22.6984 26.1563 22.5754 26.2295 22.4623 26.3063L22.4008 26.346C22.2876 26.4178 22.1769 26.4947 22.065 26.5728L21.985 26.6285C21.878 26.7054 21.7722 26.7835 21.6665 26.8653L21.5779 26.9334L21.5029 26.9991V32.6633C21.6637 32.429 21.8616 32.1906 22.0601 31.9878C22.1056 31.9419 22.1511 31.8973 22.1978 31.8539L22.2126 31.8403L22.3479 31.7163L22.37 31.6977C22.4131 31.6606 22.4586 31.6246 22.5041 31.5887L22.5336 31.5651C22.5889 31.5218 22.6443 31.4808 22.7021 31.4412C23.5468 30.8214 24.5636 30.4853 25.6085 30.4806C27.0229 30.4806 28.0704 31.0144 28.751 32.082C29.2561 32.9 29.5091 34.7149 29.5099 37.5267V54H37.0003V35.1235Z" fill="url(#paint0_linear_3999_218)"/>
<path d="M21.5027 25H14V54H21.5027V25Z" fill="white"/>
<path d="M58 36H52.5L49.5 31.5652L52.25 27.5L58 36Z" fill="url(#paint1_linear_3999_218)"/>
<path d="M46.5 36H41L52.5 19H58L46.5 36Z" fill="#2FA2DB"/>
<path d="M46.5 19H41L46.75 27.5L49.5 23.4348L46.5 19Z" fill="url(#paint2_linear_3999_218)"/>
<defs>
<linearGradient id="paint0_linear_3999_218" x1="75404.9" y1="26995.5" x2="75417.6" y2="26995.5" gradientUnits="userSpaceOnUse">
<stop stop-color="#F3F4F4"/>
<stop offset="0.5" stop-color="#F3F4F4"/>
<stop offset="0.67" stop-color="#F0F1F1"/>
<stop offset="0.77" stop-color="#E8E9E9"/>
<stop offset="0.86" stop-color="#DADADA"/>
<stop offset="0.94" stop-color="#C6C6C6"/>
<stop offset="1" stop-color="#AEAEAE"/>
</linearGradient>
<linearGradient id="paint1_linear_3999_218" x1="47.96" y1="24.7" x2="55.2801" y2="35.68" gradientUnits="userSpaceOnUse">
<stop stop-color="#206D93"/>
<stop offset="1" stop-color="#2FA2DB"/>
</linearGradient>
<linearGradient id="paint2_linear_3999_218" x1="43.7001" y1="19" x2="49.6401" y2="27.46" gradientUnits="userSpaceOnUse">
<stop stop-color="#2FA2DB"/>
<stop offset="1" stop-color="#118ECC"/>
</linearGradient>
</defs>
</svg>
